<svg width="21" height="17" viewBox="0 0 21 17" fill="none" xmlns="http://www.w3.org/2000/svg">
<path d="M10.4742 0.248964C10.2546 0.0671423 9.94758 -0.0225995 9.63893 0.00486927C9.33027 0.032338 9.05323 0.174065 8.88536 0.390361L4.57058 5.95H2.05233C0.918858 5.95 0 6.71112 0 7.65V15.3C0 16.2389 0.918857 17 2.05233 17L5.13081 17C5.13149 17 5.13216 17 5.13284 17H14.2087C16.5811 17 18.6442 15.6527 19.1978 13.7418L20.9136 7.8201C21.3782 6.2166 19.9109 4.675 17.9201 4.675H12.314V2.47709C12.314 2.02622 12.0977 1.59382 11.7128 1.275L10.4742 0.248964ZM6.15698 15.3V7.04965L9.92324 2.19679L10.2616 2.47709V5.525C10.2616 5.99444 10.7211 6.375 11.2878 6.375H17.9201C18.5837 6.375 19.0728 6.88887 18.9179 7.42337L17.2022 13.3451C16.87 14.4916 15.6321 15.3 14.2087 15.3H6.15698ZM4.10465 15.3H2.05233V7.65H4.10465V15.3Z" fill="black"/>
</svg>
